<?xml version="1.0" encoding="UTF-8"?>
<svg id="Layer_2" data-name="Layer 2" xmlns="http://www.w3.org/2000/svg" viewBox="0 0 128.87 118.96">
  <defs>
    <style>
      .cls-1 {
        fill: #0290be;
      }
    </style>
  </defs>
  <g id="Layer_1-2" data-name="Layer 1">
    <g>
      <path class="cls-1" d="M44.97,85.37c-.25,1.21-.39,2.47-.39,3.75,0,10.81,8.79,19.57,19.6,19.57s19.56-8.77,19.56-19.57c0-1.29-.12-2.54-.36-3.75-1.76-9.02-9.69-15.83-19.2-15.83s-17.45,6.81-19.21,15.83ZM57.12,94.68l5.83-5.84v-11.07c0-.93.76-1.7,1.71-1.7s1.68.77,1.68,1.7v11.77h0c0,.21-.05.43-.11.63-.03,0-.03.01-.03.03-.06.2-.21.4-.35.55l-6.33,6.33c-.33.33-.78.49-1.19.49s-.87-.16-1.2-.49c-.66-.67-.66-1.74,0-2.39Z"/>
      <path class="cls-1" d="M110,18.87c-25.16-25.16-65.96-25.16-91.13,0-25.16,25.16-25.16,65.96,0,91.13,3.31,3.31,6.89,6.17,10.67,8.61v-58.94l-5.65-9.14,12.42-1.33c.56-17.11,11.9-30.91,26.12-31.97v-6.91c0-.95.77-1.73,1.73-1.73s1.71.77,1.71,1.73v6.91c14.24,1.06,25.58,14.88,26.13,32.02l12.42,1.28-5.66,9.14v59.29c3.98-2.51,7.76-5.49,11.23-8.96,25.16-25.16,25.16-65.96,0-91.13Z"/>
      <path class="cls-1" d="M64.29,33.77s-5.46,2.57-5,15.77h10.02s.6-11.82-5.02-15.77Z"/>
    </g>
  </g>
</svg>