<?xml version="1.0" encoding="UTF-8"?>
<svg id="Layer_2" data-name="Layer 2" xmlns="http://www.w3.org/2000/svg" viewBox="0 0 196.67 42.59">
  <defs>
    <style>
      .cls-1 {
        fill: #fff;
      }

      .cls-2 {
        fill: #0290be;
      }
    </style>
  </defs>
  <g id="Layer_1-2" data-name="Layer 1">
    <g>
      <g>
        <path class="cls-1" d="M49.2,39.38V9.81h10.13v2.14h-7.48v11.08h6.12v2.07h-6.12v12.2h7.56v2.09h-10.22Z"/>
        <path class="cls-1" d="M61.09,39.38V9.81h2.66v27.49h7.98v2.09h-10.64Z"/>
        <path class="cls-1" d="M73.77,39.38V13.79h-4.7v-3.98h14.36v3.98h-4.55v25.6h-5.11Z"/>
        <path class="cls-1" d="M83.75,39.38V9.81h11.74v3.8h-6.63v8.49h5.24v3.8h-5.24v9.76h6.71v3.73h-11.82Z"/>
        <path class="cls-1" d="M96.08,39.38V9.81h5.11v25.84h6.71v3.73h-11.82Z"/>
        <path class="cls-1" d="M108.17,39.38V9.81h11.74v3.8h-6.63v8.49h5.24v3.8h-5.24v9.76h6.71v3.73h-11.82ZM112.74,7.3l2.06-7.3h4.79l-4.16,7.3h-2.69Z"/>
        <path class="cls-1" d="M127.52,39.77c-2.65,0-4.56-.87-5.73-2.62-1.17-1.75-1.75-4.29-1.75-7.63v-9.63c0-1.7.13-3.17.38-4.4.25-1.23.68-2.31,1.28-3.24.6-.93,1.42-1.62,2.47-2.09,1.05-.46,2.33-.7,3.86-.7,2.77,0,4.76.72,5.97,2.15s1.81,3.61,1.81,6.52v1.45h-4.89v-1.53c0-.65-.01-1.19-.04-1.61-.03-.42-.1-.84-.2-1.26-.11-.42-.26-.75-.47-.97s-.48-.41-.83-.55c-.35-.14-.78-.21-1.29-.21-.38,0-.72.05-1.02.15-.3.1-.55.23-.75.37-.2.15-.37.36-.52.63-.14.27-.25.54-.32.79-.07.26-.13.59-.17.99-.04.4-.07.76-.08,1.07-.01.31-.02.71-.02,1.2v11.93c0,1.78.21,3.09.63,3.91.42.83,1.21,1.24,2.38,1.24.61,0,1.12-.12,1.53-.37s.73-.61.96-1.11c.23-.49.39-1.06.49-1.69s.14-1.41.14-2.31v-2.43h-3.03v-3.48h7.63v15.02h-3.32l-.37-3c-.85,2.26-2.43,3.39-4.75,3.39Z"/>
        <path class="cls-1" d="M136.84,39.38V9.81h6.43c1.48,0,2.75.13,3.81.38,1.06.26,1.98.68,2.77,1.28s1.37,1.42,1.76,2.44c.39,1.03.58,2.29.58,3.77,0,1.86-.26,3.37-.79,4.55-.52,1.18-1.39,2.03-2.6,2.57l3.89,14.57h-5.12l-3.35-13.5h-2.27v13.5h-5.11ZM141.95,22.44h1.23c1.51,0,2.58-.34,3.22-1.02.64-.68.96-1.84.96-3.48s-.28-2.71-.83-3.4c-.55-.68-1.57-1.03-3.04-1.03h-1.54v8.92Z"/>
        <path class="cls-1" d="M152.16,39.38l5.7-29.57h5.33l5.68,29.57h-4.75l-1.13-6.87h-4.85l-1.15,6.87h-4.82ZM158.67,29h3.75l-1.88-12.15-1.88,12.15Z"/>
        <path class="cls-1" d="M169.19,39.38V9.81h11.52v3.73h-6.41v8.6h5.12v3.8h-5.12v13.45h-5.11Z"/>
        <path class="cls-1" d="M188.59,39.74c-2.89,0-4.96-.83-6.21-2.48s-1.88-4.07-1.88-7.26v-10.92c0-1.57.14-2.93.42-4.08.28-1.15.74-2.15,1.36-3s1.46-1.48,2.51-1.9c1.05-.42,2.31-.63,3.79-.63,2.87,0,4.94.81,6.2,2.44,1.26,1.63,1.89,4.02,1.89,7.17v10.92c0,1.55-.14,2.9-.43,4.08-.29,1.17-.74,2.19-1.37,3.05-.63.86-1.46,1.51-2.51,1.95-1.05.44-2.31.66-3.77.66ZM187.31,35.51c.36.15.78.23,1.28.23s.92-.08,1.27-.23c.35-.15.63-.36.84-.61.21-.25.37-.58.49-.98.12-.4.2-.81.24-1.21s.06-.89.06-1.45v-13.43c0-.71-.03-1.31-.1-1.78s-.2-.92-.4-1.35c-.2-.42-.49-.74-.89-.95-.39-.21-.9-.31-1.51-.31s-1.11.1-1.51.31-.7.52-.89.95c-.19.42-.32.87-.39,1.35-.07.48-.1,1.07-.1,1.78v13.43c0,.56.02,1.04.06,1.45s.12.81.24,1.21.28.73.48.98c.2.25.48.45.84.61Z"/>
      </g>
      <g>
        <path class="cls-2" d="M15.25,31.19c-.09.41-.13.84-.13,1.27,0,3.67,2.98,6.64,6.65,6.64s6.64-2.97,6.64-6.64c0-.44-.04-.86-.12-1.27-.6-3.06-3.29-5.37-6.51-5.37s-5.92,2.31-6.52,5.37ZM19.38,34.35l1.98-1.98v-3.76c0-.31.26-.58.58-.58s.57.26.57.58v3.99h0c0,.07-.02.14-.04.21,0,0,0,0,0,0-.02.07-.07.14-.12.19l-2.15,2.15c-.11.11-.26.17-.4.17s-.29-.05-.41-.17c-.23-.23-.23-.59,0-.81Z"/>
        <path class="cls-2" d="M37.32,8.63C28.78.1,14.94.1,6.4,8.63c-8.54,8.54-8.54,22.38,0,30.92,1.12,1.12,2.34,2.09,3.62,2.92v-20l-1.92-3.1,4.21-.45c.19-5.81,4.04-10.49,8.86-10.84v-2.34c0-.32.26-.59.59-.59s.58.26.58.59v2.34c4.83.36,8.68,5.05,8.87,10.86l4.21.43-1.92,3.1v20.11c1.35-.85,2.63-1.86,3.81-3.04,8.54-8.54,8.54-22.38,0-30.92Z"/>
        <path class="cls-2" d="M21.81,13.69s-1.85.87-1.7,5.35h3.4s.2-4.01-1.7-5.35Z"/>
      </g>
    </g>
  </g>
</svg>